<svg width="32" height="24" viewBox="0 0 32 24" fill="none" xmlns="http://www.w3.org/2000/svg">
<path fill-rule="evenodd" clip-rule="evenodd" d="M16.5528 0.605579C16.8916 0.436187 17.297 0.472742 17.6 0.700006L31.6 11.2C31.8518 11.3889 32 11.6852 32 12C32 12.3148 31.8518 12.6112 31.6 12.8L17.6 23.3C17.297 23.5273 16.8916 23.5638 16.5528 23.3944C16.214 23.225 16 22.8788 16 22.5V19H1C0.447715 19 0 18.5523 0 18V6.00001C0 5.44772 0.447715 5.00001 1 5.00001H16V1.50001C16 1.12123 16.214 0.774971 16.5528 0.605579ZM18 3.50001V6.00001C18 6.55229 17.5523 7.00001 17 7.00001H2V17H17C17.5523 17 18 17.4477 18 18V20.5L29.3333 12L18 3.50001Z" fill="black"/>
</svg>
