<svg width="32" height="24" viewBox="0 0 32 24" fill="none" xmlns="http://www.w3.org/2000/svg">
<path fill-rule="evenodd" clip-rule="evenodd" d="M15.4472 0.605579C15.786 0.774971 16 1.12123 16 1.50001V5.00001H31C31.5523 5.00001 32 5.44772 32 6.00001V18C32 18.5523 31.5523 19 31 19H16V22.5C16 22.8788 15.786 23.225 15.4472 23.3944C15.1084 23.5638 14.703 23.5273 14.4 23.3L0.4 12.8C0.148194 12.6112 0 12.3148 0 12C0 11.6852 0.148194 11.3889 0.4 11.2L14.4 0.700006C14.703 0.472742 15.1084 0.436187 15.4472 0.605579ZM2.66667 12L14 20.5V18C14 17.4477 14.4477 17 15 17H30V7.00001H15C14.4477 7.00001 14 6.55229 14 6.00001V3.50001L2.66667 12Z" fill="black"/>
</svg>
