<svg width="32" height="32" viewBox="0 0 32 32" fill="none" xmlns="http://www.w3.org/2000/svg">
<path fill-rule="evenodd" clip-rule="evenodd" d="M1 9C1 8.44772 1.44772 8 2 8H19C19.5523 8 20 8.44772 20 9V24C20 24.5523 19.5523 25 19 25H10C9.44772 25 9 24.5523 9 24C9 23.4477 9.44772 23 10 23H18V10H2C1.44772 10 1 9.55228 1 9Z" fill="black"/>
<path fill-rule="evenodd" clip-rule="evenodd" d="M24 23C23.4477 23 23 23.4477 23 24C23 24.5523 23.4477 25 24 25C24.5523 25 25 24.5523 25 24C25 23.4477 24.5523 23 24 23ZM21 24C21 22.3431 22.3431 21 24 21C25.6569 21 27 22.3431 27 24C27 25.6569 25.6569 27 24 27C22.3431 27 21 25.6569 21 24Z" fill="black"/>
<path fill-rule="evenodd" clip-rule="evenodd" d="M8 23C7.44772 23 7 23.4477 7 24C7 24.5523 7.44772 25 8 25C8.55228 25 9 24.5523 9 24C9 23.4477 8.55228 23 8 23ZM5 24C5 22.3431 6.34315 21 8 21C9.65685 21 11 22.3431 11 24C11 25.6569 9.65685 27 8 27C6.34315 27 5 25.6569 5 24Z" fill="black"/>
<path fill-rule="evenodd" clip-rule="evenodd" d="M18 13C18 12.4477 18.4477 12 19 12H25C25.3038 12 25.5911 12.1381 25.7809 12.3753L29.7809 17.3753C29.9227 17.5526 30 17.7729 30 18V24C30 24.5523 29.5523 25 29 25H26C25.4477 25 25 24.5523 25 24C25 23.4477 25.4477 23 26 23H28V18.3508L24.5194 14H20V24C20 24.5523 19.5523 25 19 25C18.4477 25 18 24.5523 18 24V13Z" fill="black"/>
<path fill-rule="evenodd" clip-rule="evenodd" d="M3 13C3 12.4477 3.44772 12 4 12H13C13.5523 12 14 12.4477 14 13C14 13.5523 13.5523 14 13 14H4C3.44772 14 3 13.5523 3 13Z" fill="black"/>
<path fill-rule="evenodd" clip-rule="evenodd" d="M1 17C1 16.4477 1.44772 16 2 16H11C11.5523 16 12 16.4477 12 17C12 17.5523 11.5523 18 11 18H2C1.44772 18 1 17.5523 1 17Z" fill="black"/>
</svg>
