<svg width="28" height="29" viewBox="0 0 28 29" fill="none" xmlns="http://www.w3.org/2000/svg">
<path fill-rule="evenodd" clip-rule="evenodd" d="M19.6 14.4C19.8652 14.4 20.1196 14.5054 20.3071 14.6929L26.494 20.8797C28.2233 22.4928 28.1762 25.238 26.5071 26.9071C24.8166 28.5976 22.1834 28.5976 20.4929 26.9071L14.2929 20.7071C13.9024 20.3166 13.9024 19.6834 14.2929 19.2929L18.8929 14.6929C19.0804 14.5054 19.3348 14.4 19.6 14.4ZM16.4142 20L21.9071 25.4929C22.8166 26.4024 24.1834 26.4024 25.0929 25.4929C26.0187 24.567 25.9764 23.1237 25.1217 22.3348C25.1119 22.3258 25.1023 22.3165 25.0929 22.3071L19.6 16.8142L16.4142 20Z" fill="black"/>
<path fill-rule="evenodd" clip-rule="evenodd" d="M3.4814 0.804575C3.80279 0.472468 4.3099 0.403861 4.70799 0.63863L8.60799 2.93863C8.75379 3.02462 8.87538 3.14621 8.96137 3.29201L11.1969 7.08266L19.6071 15.4929C19.7946 15.6804 19.9 15.9348 19.9 16.2C19.9 16.4652 19.7946 16.7196 19.6071 16.9071L16.5071 20.0071C16.1166 20.3976 15.4834 20.3976 15.0929 20.0071L6.67856 11.5928L2.9822 9.3555C2.8407 9.26985 2.72265 9.15045 2.63863 9.00798L0.338635 5.10798C0.110067 4.72041 0.168493 4.22791 0.481398 3.90457L3.4814 0.804575ZM4.37068 2.7616L2.44828 4.74808L4.23337 7.77497L7.8178 9.9445C7.88665 9.98616 7.95021 10.036 8.00711 10.0929L15.8 17.8858L17.4858 16.2L9.69289 8.4071C9.63329 8.3475 9.58146 8.28059 9.53863 8.20798L7.36973 4.53027L4.37068 2.7616Z" fill="black"/>
<path fill-rule="evenodd" clip-rule="evenodd" d="M17.0815 2.0043C18.9059 0.0688201 21.6462 -0.248701 23.8457 0.561657C24.1657 0.679552 24.4036 0.952392 24.4767 1.28548C24.5499 1.61856 24.4483 1.96597 24.2071 2.20711L22.0075 4.40675L22.3246 5.67538L23.5933 5.99254L25.7929 3.79289C26.034 3.55175 26.3814 3.45012 26.7145 3.52328C27.0476 3.59644 27.3205 3.8343 27.4384 4.1543C28.261 6.38722 27.8056 9.09906 26.0185 10.8957C24.3635 12.6515 21.9548 13.0758 19.8797 12.5345L17.6071 14.8071L16.1929 13.3929L18.8929 10.6929C19.1687 10.4171 19.5797 10.3268 19.9457 10.4617C21.5417 11.0497 23.3948 10.7701 24.5705 9.51606C24.5778 9.50822 24.5853 9.50049 24.5929 9.49289C25.3696 8.71617 25.7871 7.65704 25.8307 6.58355L24.6071 7.80711C24.3587 8.05549 23.9982 8.15534 23.6575 8.07014L21.2575 7.47014C20.8992 7.38057 20.6194 7.10082 20.5299 6.74254L19.9299 4.34254C19.8447 4.00176 19.9445 3.64127 20.1929 3.39289L21.4418 2.14404C20.3556 2.16102 19.2979 2.56437 18.5295 3.38394C18.5222 3.39178 18.5147 3.39951 18.5071 3.40711C17.3037 4.61056 16.9628 6.49195 17.5384 8.05429C17.6732 8.4203 17.5829 8.8313 17.3071 9.10711L14.6071 11.8071L13.1929 10.3929L15.4672 8.11862C14.934 6.02176 15.4588 3.63572 17.0815 2.0043Z" fill="black"/>
<path fill-rule="evenodd" clip-rule="evenodd" d="M8.12028 15.4655L9.9929 13.5929L11.4071 15.0071L9.10711 17.3071C8.8313 17.5829 8.4203 17.6732 8.0543 17.5383C6.45829 16.9503 4.60521 17.2299 3.42954 18.4839C3.42219 18.4918 3.41471 18.4995 3.40711 18.5071C2.63039 19.2838 2.21296 20.343 2.16935 21.4164L3.3929 20.1929C3.64128 19.9445 4.00177 19.8447 4.34254 19.9299L6.74254 20.5299C7.10083 20.6194 7.38058 20.8992 7.47015 21.2575L8.07015 23.6575C8.15534 23.9982 8.05549 24.3587 7.80711 24.6071L6.55826 25.856C7.64443 25.839 8.70212 25.4356 9.47047 24.6161C9.47782 24.6082 9.4853 24.6005 9.4929 24.5929C10.6964 23.3894 11.0373 21.5081 10.4617 19.9457C10.3268 19.5797 10.4171 19.1687 10.6929 18.8929L13.0929 16.4929L14.5071 17.9071L12.5328 19.8814C13.066 21.9782 12.5413 24.3643 10.9185 25.9957C9.09413 27.9312 6.35384 28.2487 4.1543 27.4383C3.8343 27.3205 3.59644 27.0476 3.52329 26.7145C3.45013 26.3814 3.55176 26.034 3.7929 25.7929L5.99254 23.5933L5.67538 22.3246L4.40675 22.0075L2.20711 24.2071C1.96597 24.4483 1.61857 24.5499 1.28548 24.4767C0.952396 24.4036 0.679556 24.1657 0.561662 23.8457C-0.260995 21.6128 0.194414 18.9009 1.98152 17.1043C3.63651 15.3485 6.04525 14.9242 8.12028 15.4655Z" fill="black"/>
</svg>
