<svg xmlns="http://www.w3.org/2000/svg" viewBox="16 16 68 68" xml:space="preserve"><path fill="#0093D8" d="m50.9 49.1 2.8 4.3 3.4 4.4 16.4-4.3V75l-22.6 7.3z"/><path fill="#0093D8" d="m51 49.1-2.8 4.3-3.4 4.4-16.3-4.3V75L51 82.3z"/><circle fill="#FFAE3A" cx="50.9" cy="29.5" r="11.3"/><path fill="#2B4049" d="M36.7 65.1c-.7 0-1.3.6-1.3 1.3 0 .7.6 1.3 1.3 1.3s1.3-.6 1.3-1.3c0-.7-.5-1.3-1.3-1.3z"/><path fill="#2B4049" d="m75.8 41.2 7.8-7.8c.3-.3.5-.8.3-1.3-.1-.5-.5-.8-.9-.9l-19-5.9c-1.7-5.5-6.8-9.3-12.7-9.3-5.4 0-10.3 3.3-12.3 8.3l-22.1 6.9c-.4.1-.8.5-.9 1-.1.5 0 .9.4 1.3l8 8-5.1 8.4c-.2.3-.2.8-.1 1.1.1.4.4.7.8.8l7.3 2.4v20.4c0 .6.3 1 .9 1.2 4.5 1.7 21.2 7.9 21.3 8 .3.1.6.1.8 0l23.9-8c.5-.2.9-.7.9-1.3v-21l7.8-2.5c.4-.1.8-.5.9-1 .1-.5 0-.9-.4-1.3l-7.6-7.5zM64.6 29.3v-1l15.6 4.8-6.6 6.6-10.8-3.6c1.1-2 1.8-4.4 1.8-6.8zm-23.3-3.5c1.5-4.3 5.5-7.2 10.1-7.2 4.9 0 9.1 3.3 10.3 8 .2.8.3 1.7.3 2.6 0 2.5-.8 4.8-2.4 6.7-2 2.5-5 3.9-8.3 3.9-3.5 0-6.7-1.7-8.7-4.6-1.2-1.8-1.9-3.9-1.9-6.1 0-1 .2-2.2.6-3.3zm-21.5 7.3 18.4-5.7c-.1.6-.2 1.2-.2 1.9 0 2.1.5 4.2 1.5 6.1l-13.1 4.4-6.6-6.7zm2.7 16.7 4.2-7L48 49.9l-4.2 7c-2.3-.7-18.9-6.3-21.3-7.1zm26.2 31-18.6-7V55.2C44.7 60 44 59.9 44.4 59.9c.5 0 .9-.2 1.1-.6l3.1-5.2v26.7zm1.3-33-19.7-6.6L41 37.7c2.5 3.1 6.3 4.9 10.3 4.9 3.7 0 7.2-1.5 9.7-4.2l8.7 2.9L50 47.8zm22.6 25.9-21.3 7.1V53l4.7 5.9c.3.4.9.6 1.4.4l15.1-4.7v19.1zM57.5 56.5l-5.3-6.6 21.3-7.1 6.6 6.6-22.6 7.1z"/><path fill="#2B4049" d="m45.2 68.1-3-1.1c-.7-.3-1.5.1-1.7.8-.3.7.1 1.5.8 1.7l3 1.1c.7.3 1.5-.1 1.7-.8.2-.7-.2-1.5-.8-1.7zm0 5.7-8-3c-.7-.3-1.5.1-1.7.8s.1 1.5.8 1.7l8 3c.2.1.3.1.5.1.5 0 1-.3 1.2-.9.2-.7-.2-1.5-.8-1.7zm13.7-49.4c-.5-.5-1.4-.5-1.9 0l-7 7-1.7-1.7c-.5-.5-1.4-.5-1.9 0s-.5 1.4 0 1.9l2.7 2.7c.5.5 1.4.5 1.9 0l8-8c.4-.6.4-1.4-.1-1.9z"/></svg>