<svg xmlns="http://www.w3.org/2000/svg" viewBox="393 13 74 74" xml:space="preserve"><path fill="#0093D8" d="M394.6 14.5H426v39.2h-31.4z"/><path fill="#FFF" d="M400.2 28.8h3.3v3.3h-3.3zm8.5 0h3.3v3.3h-3.3zm-9.7-10h22.6v4.4H399zm18.1 10h3.3v3.3h-3.3zm-16.9 8.7h3.3v3.3h-3.3zm8.5 0h3.3v3.3h-3.3zm8.4 0h3.3v3.3h-3.3zm-16.9 8.7h3.3v3.3h-3.3zm8.5 0h3.3v3.3h-3.3zm8.4 0h3.3v3.3h-3.3z"/><circle fill="#FFAE3A" cx="421.4" cy="69.8" r="11.1"/><path fill="#2B4049" d="M421.4 57.4c-6.8 0-12.3 5.5-12.3 12.3S414.6 82 421.4 82c6.8 0 12.3-5.5 12.3-12.3 0-6.8-5.5-12.3-12.3-12.3zm0 22.1c-5.4 0-9.8-4.4-9.8-9.8s4.4-9.8 9.8-9.8 9.8 4.4 9.8 9.8-4.4 9.8-9.8 9.8z"/><path fill="#2B4049" d="M421.4 66c1.5 0 2.5.7 2.5 1.2h2.5c0-1.7-1.5-3.2-3.7-3.6v-1.4h-2.5v1.4c-2.1.4-3.7 1.8-3.7 3.6 0 2.1 2.2 3.7 4.9 3.7 1.5 0 2.5.7 2.5 1.2s-1 1.2-2.5 1.2-2.5-.7-2.5-1.2h-2.5c0 1.7 1.5 3.2 3.7 3.6v1.4h2.5v-1.4c2.1-.4 3.7-1.8 3.7-3.6 0-2.1-2.2-3.7-4.9-3.7-1.5 0-2.5-.7-2.5-1.2s1-1.2 2.5-1.2z"/><path fill="#2B4049" d="M455.9 84.5h-51.7V54.9h19.7c2 0 3.7-1.7 3.7-3.7V20.5h13.5v14.8h14.8v17.2h2.5v-19L442.8 18h-15.3v-1.2c0-2-1.7-3.7-3.7-3.7h-27.1c-2 0-3.7 1.7-3.7 3.7v34.5c0 2 1.7 3.7 3.7 3.7h4.9v32h56.6V69.7h-2.5v14.8zm-12.3-62.3 10.6 10.6h-10.6V22.2zm-48 29V16.8c0-.7.6-1.2 1.2-1.2h27.1c.7 0 1.2.6 1.2 1.2v34.5c0 .7-.6 1.2-1.2 1.2h-27.1c-.7 0-1.2-.6-1.2-1.3z"/><path fill="#2B4049" d="M432.5 43.8h2.5v2.5h-2.5v-2.5zm4.9 0h14.8v2.5h-14.8v-2.5zm-4.9-4.9h2.5v2.5h-2.5v-2.5zm4.9 0h14.8v2.5h-14.8v-2.5zm-4.9 9.9h2.5v2.5h-2.5v-2.5zm4.9 0h14.8v2.5h-14.8v-2.5zm-4.9 4.9h2.5v2.5h-2.5v-2.5zm4.9 0h14.8v2.5h-14.8v-2.5zm-13.5-36.9h-27.1v8.6h27.1v-8.6zm-2.5 6.1h-22.2v-3.7h22.2v3.7zm-18.5 3.7h-2.5c-1.4 0-2.5 1.1-2.5 2.5v2.5c0 1.4 1.1 2.5 2.5 2.5h2.5c1.4 0 2.5-1.1 2.5-2.5v-2.5c0-1.4-1.1-2.5-2.5-2.5zm-2.4 4.9V29h2.5v2.5h-2.5zm11.1-4.9h-2.5c-1.4 0-2.5 1.1-2.5 2.5v2.5c0 1.4 1.1 2.5 2.5 2.5h2.5c1.4 0 2.5-1.1 2.5-2.5v-2.5c-.1-1.4-1.2-2.5-2.5-2.5zm-2.5 4.9V29h2.5v2.5h-2.5zm11.1-4.9h-2.5c-1.4 0-2.5 1.1-2.5 2.5v2.5c0 1.4 1.1 2.5 2.5 2.5h2.5c1.4 0 2.5-1.1 2.5-2.5v-2.5c-.1-1.4-1.2-2.5-2.5-2.5zm-2.5 4.9V29h2.5v2.5h-2.5zm-14.8 3.7h-2.5c-1.4 0-2.5 1.1-2.5 2.5v2.5c0 1.4 1.1 2.5 2.5 2.5h2.5c1.4 0 2.5-1.1 2.5-2.5v-2.5c0-1.4-1.1-2.5-2.5-2.5zm-2.4 5v-2.5h2.5v2.5h-2.5zm11.1-5h-2.5c-1.4 0-2.5 1.1-2.5 2.5v2.5c0 1.4 1.1 2.5 2.5 2.5h2.5c1.4 0 2.5-1.1 2.5-2.5v-2.5c-.1-1.4-1.2-2.5-2.5-2.5zm-2.5 5v-2.5h2.5v2.5h-2.5zm11.1-5h-2.5c-1.4 0-2.5 1.1-2.5 2.5v2.5c0 1.4 1.1 2.5 2.5 2.5h2.5c1.4 0 2.5-1.1 2.5-2.5v-2.5c-.1-1.4-1.2-2.5-2.5-2.5zm-2.5 5v-2.5h2.5v2.5h-2.5zm-14.8 3.6h-2.5c-1.4 0-2.5 1.1-2.5 2.5v2.5c0 1.4 1.1 2.5 2.5 2.5h2.5c1.4 0 2.5-1.1 2.5-2.5v-2.5c0-1.4-1.1-2.5-2.5-2.5zm-2.4 5v-2.5h2.5v2.5h-2.5zm11.1-5h-2.5c-1.4 0-2.5 1.1-2.5 2.5v2.5c0 1.4 1.1 2.5 2.5 2.5h2.5c1.4 0 2.5-1.1 2.5-2.5v-2.5c-.1-1.4-1.2-2.5-2.5-2.5zm-2.5 5v-2.5h2.5v2.5h-2.5zm11.1-5h-2.5c-1.4 0-2.5 1.1-2.5 2.5v2.5c0 1.4 1.1 2.5 2.5 2.5h2.5c1.4 0 2.5-1.1 2.5-2.5v-2.5c-.1-1.4-1.2-2.5-2.5-2.5zm-2.5 5v-2.5h2.5v2.5h-2.5zm48.1 3.5c-1.5-1.4-3.8-1.4-5.2 0l-21.1 21.1c-.1.1-.2.2-.2.4l-3 6.5c-.2.5-.1 1 .2 1.4.4.4.9.5 1.4.2l6.5-3c.1-.1.3-.1.4-.2l21.1-21.1c1.4-1.5 1.4-3.8-.1-5.3zm-22.7 24.5-3.2 1.5 1.5-3.2 15.7-15.7 1.7 1.7-15.7 15.7zm17.5-17.5-1.7-1.7.9-.9 1.7 1.7-.9.9zm3.5-3.5-.9.9-1.7-1.7.9-.9c.5-.5 1.3-.5 1.7 0 .5.5.5 1.2 0 1.7z"/></svg>