<svg xmlns="http://www.w3.org/2000/svg" viewBox="424.5 9.5 75 81" xml:space="preserve"><path fill="#FFAE3A" d="M487.9 16.6h-11.1v7H472v-7h-24.4v7h-5.8v-7h-10.6c-3.1 0-5.6 2.5-5.6 5.6v6.5H493v-7c.1-2.8-2.2-5.1-5.1-5.1z"/><circle fill="#0093D8" cx="478.8" cy="69.5" r="13.8"/><circle fill="#FFF" cx="478.8" cy="69.5" r="1.9"/><g fill="#2B4049"><path d="M432.2 46h2.7c1.3 0 2.4-1.1 2.4-2.4v-2.7c0-1.3-1.1-2.4-2.4-2.4h-2.7c-1.3 0-2.4 1.1-2.4 2.4v2.7c0 1.3 1.1 2.4 2.4 2.4zm0-5.1s0-.1 0 0l2.8-.1s.1 0 .1.1v2.7s0 .1-.1.1h-2.7s-.1 0-.1-.1v-2.7zm10.4 5.1h2.7c1.3 0 2.4-1.1 2.4-2.4v-2.7c0-1.3-1.1-2.4-2.4-2.4h-2.7c-1.3 0-2.4 1.1-2.4 2.4v2.7c0 1.3 1 2.4 2.4 2.4zm-.1-5.1s0-.1 0 0l2.7-.1s.1 0 .1.1v2.7s0 .1-.1.1h-2.7s-.1 0-.1-.1v-2.7zm10.4 5.1h2.7c1.3 0 2.4-1.1 2.4-2.4v-2.7c0-1.3-1.1-2.4-2.4-2.4h-2.7c-1.3 0-2.4 1.1-2.4 2.4v2.7c0 1.3 1.1 2.4 2.4 2.4zm-.1-5.1s.1-.1 0 0l2.7-.1s.1 0 .1.1v2.7s0 .1-.1.1h-2.7s-.1 0-.1-.1v-2.7zm13.1 5.1c1.3 0 2.4-1.1 2.4-2.4v-2.7c0-1.3-1.1-2.4-2.4-2.4h-2.7c-1.3 0-2.4 1.1-2.4 2.4v2.7c0 1.3 1.1 2.4 2.4 2.4h2.7zm-2.7-2.4v-2.7s0-.1.1-.1h2.7s.1 0 .1.1v2.7s0 .1-.1.1l-2.8-.1c0 .1 0 0 0 0zm13.1 2.4c1.3 0 2.4-1.1 2.4-2.4v-2.7c0-1.3-1.1-2.4-2.4-2.4h-2.7c-1.3 0-2.4 1.1-2.4 2.4v2.7c0 1.3 1.1 2.4 2.4 2.4h2.7zm-2.8-2.4v-2.7s0-.1.1-.1h2.7s.1 0 .1.1v2.7s0 .1-.1.1l-2.8-.1c0 .1 0 0 0 0zm13.1 2.4c1.3 0 2.4-1.1 2.4-2.4v-2.7c0-1.3-1.1-2.4-2.4-2.4h-2.7c-1.3 0-2.4 1.1-2.4 2.4v2.7c0 1.3 1.1 2.4 2.4 2.4h2.7zm-2.8-2.4v-2.7s0-.1.1-.1h2.7s.1 0 .1.1v2.7s0 .1-.1.1l-2.8-.1c.1.1 0 0 0 0zm-54 10.3c0 1.3 1.1 2.4 2.4 2.4h2.7c1.3 0 2.4-1.1 2.4-2.4v-2.7c0-1.3-1.1-2.4-2.4-2.4h-2.7c-1.3 0-2.4 1.1-2.4 2.4v2.7zm2.4-2.7 2.8-.1s.1 0 .1.1v2.7s0 .1-.1.1h-2.7s-.1 0-.1-.1v-2.7zm8 2.7c0 1.3 1.1 2.4 2.4 2.4h2.7c1.3 0 2.4-1.1 2.4-2.4v-2.7c0-1.3-1.1-2.4-2.4-2.4h-2.7c-1.3 0-2.4 1.1-2.4 2.4v2.7zm2.3-2.7 2.7-.1s.1 0 .1.1v2.7s0 .1-.1.1h-2.7s-.1 0-.1-.1v-2.7zm8 2.7c0 1.3 1.1 2.4 2.4 2.4h2.7c1.3 0 2.4-1.1 2.4-2.4v-2.7c0-1.3-1.1-2.4-2.4-2.4h-2.7c-1.3 0-2.4 1.1-2.4 2.4v2.7zm2.3-2.7s.1 0 0 0l2.7-.1s.1 0 .1.1v2.7s0 .1-.1.1h-2.7s-.1 0-.1-.1v-2.7zm-23 13.1c0 1.3 1.1 2.4 2.4 2.4h2.7c1.3 0 2.4-1.1 2.4-2.4v-2.7c0-1.3-1.1-2.4-2.4-2.4h-2.7c-1.3 0-2.4 1.1-2.4 2.4v2.7zm2.4-2.7c0-.1 0-.1 0 0l2.8-.1s.1 0 .1.1v2.7s0 .1-.1.1h-2.7s-.1 0-.1-.1v-2.7zm8 2.7c0 1.3 1.1 2.4 2.4 2.4h2.7c1.3 0 2.4-1.1 2.4-2.4v-2.7c0-1.3-1.1-2.4-2.4-2.4h-2.7c-1.3 0-2.4 1.1-2.4 2.4v2.7zm2.3-2.7c0-.1 0-.1 0 0l2.7-.1s.1 0 .1.1v2.7s0 .1-.1.1h-2.7s-.1 0-.1-.1v-2.7zm8 2.7c0 1.3 1.1 2.4 2.4 2.4h2.7c1.3 0 2.4-1.1 2.4-2.4v-2.7c0-1.3-1.1-2.4-2.4-2.4h-2.7c-1.3 0-2.4 1.1-2.4 2.4v2.7zm2.3-2.7c0-.1.1-.1 0 0l2.7-.1s.1 0 .1.1v2.7s0 .1-.1.1h-2.7s-.1 0-.1-.1v-2.7z"/><path d="M494.2 55.8V21.6c0-3.5-2.8-6.3-6.3-6.3h-9.2v-.8c0-2.4-2-4.4-4.4-4.4-2.4 0-4.4 2-4.4 4.4v.8H449v-.8c0-2.4-2-4.4-4.4-4.4-2.4 0-4.4 2-4.4 4.4v.8H431c-3.5 0-6.3 2.8-6.3 6.3v18.3c0 .6.5 1.2 1.2 1.2.6 0 1.2-.5 1.2-1.2v-4.2h64.8v17.8c-3.6-2.9-8.1-4.7-13-4.7-3.8 0-7.4 1-10.5 2.9v-.4c0-1.4-1.1-2.5-2.5-2.5h-2.6c-1.4 0-2.5 1.1-2.5 2.5v2.6c0 1.2.9 2.3 2.1 2.4-2.9 3.6-4.7 8.1-4.7 13.1v.1H431c-2.2 0-4-1.8-4-4V44.6c0-.6-.5-1.2-1.2-1.2-.6 0-1.2.5-1.2 1.2v26.1c0 3.5 2.8 6.3 6.3 6.3h2.8c.6 0 1.2-.5 1.2-1.2 0-.6-.5-1.2-1.2-1.2H431c-2.2 0-4-1.8-4-4v-.3c1.1.9 2.5 1.4 4 1.4h27.4c.1 1 .3 1.9.5 2.8h-20.4c-.6 0-1.2.5-1.2 1.2s.5 1.2 1.2 1.2h21.2c3 7.6 10.4 12.9 19.1 12.9 11.3 0 20.5-9.2 20.5-20.5 0-5.1-1.9-9.9-5.1-13.5zm-22-41.3c0-1.1.9-2.1 2.1-2.1 1.1 0 2.1.9 2.1 2.1V21c0 1.1-.9 2.1-2.1 2.1-1.1 0-2.1-.9-2.1-2.1v-6.5zm-29.7 0c0-1.1.9-2.1 2.1-2.1 1.1 0 2.1.9 2.1 2.1V21c0 1.1-.9 2.1-2.1 2.1-1.1 0-2.1-.9-2.1-2.1v-6.5zM431 17.6h9.2v2.8h-1.4c-.6 0-1.2.5-1.2 1.2s.5 1.2 1.2 1.2h1.8c.7 1.5 2.2 2.6 4 2.6 1.8 0 3.3-1.1 4-2.6h1.8c.6 0 1.2-.5 1.2-1.2s-.5-1.2-1.2-1.2H449v-2.8h20.9v2.8h-1.4c-.6 0-1.2.5-1.2 1.2s.5 1.2 1.2 1.2h1.8c.7 1.5 2.2 2.6 4 2.6 1.8 0 3.3-1.1 4-2.6h1.8c.6 0 1.2-.5 1.2-1.2s-.5-1.2-1.2-1.2h-1.4v-2.8h9.2c2.2 0 4 1.8 4 4v6.6H427v-6.6c0-2.2 1.8-4 4-4zm-4 15.7v-2.8h64.8v2.8H427zm36.2 18c0-.1.1-.1.1-.1h2.6c.1 0 .1.1.1.1v2c-.3.2-.5.4-.8.7h-1.9c-.1 0-.1-.1-.1-.1v-2.6zm15.6 36.3c-10 0-18.2-8.2-18.2-18.2s8.2-18.2 18.2-18.2S497 59.4 497 69.4s-8.2 18.2-18.2 18.2z"/><path d="M478.8 54c-8.5 0-15.4 6.9-15.4 15.4s6.9 15.4 15.4 15.4 15.4-6.9 15.4-15.4S487.3 54 478.8 54zm0 28.4c-7.2 0-13-5.8-13-13s5.8-13 13-13 13 5.8 13 13-5.8 13-13 13z"/><path d="M485.3 68.2h-2.9c-.4-1.1-1.3-2-2.4-2.4v-5.5c0-.6-.5-1.2-1.2-1.2-.6 0-1.2.5-1.2 1.2v5.5c-1.5.5-2.6 1.9-2.6 3.6 0 2.1 1.7 3.8 3.8 3.8 1.7 0 3.1-1.1 3.6-2.6h2.9c.6 0 1.2-.5 1.2-1.2-.1-.7-.6-1.2-1.2-1.2zm-6.5 2.6c-.8 0-1.4-.6-1.4-1.4 0-.8.6-1.4 1.4-1.4s1.4.6 1.4 1.4c0 .8-.6 1.4-1.4 1.4z"/></g></svg>