<svg xmlns="http://www.w3.org/2000/svg" viewBox="429.5 7.5 65 85" xml:space="preserve"><path fill="#FFAE3A" d="M431.3 89s-.9-14.3 1.8-17c2.7-2.7 16.6-11.7 20.8-10.6 4.2 1.1 6.9 3.7 6.9 3.7l-4.5 5.1 2.6 6.3-2.6 13.3h11.6l-2.5-12.2 1.5-7.6-3.7-4.4 6.8-4.3s16 4.8 17.8 6.6c1.8 1.8 4.8 7.4 4.8 10.7v12h-61l-.3-1.6z"/><ellipse fill="#0093D8" cx="480.5" cy="37.7" rx="3.8" ry="5.1"/><ellipse fill="#0093D8" cx="443.8" cy="37.6" rx="3.8" ry="5.1"/><g fill="#2B4049"><path d="M494.3 77.7c-.2-11.5-11.9-14.9-20.5-17.4-1-.3-2-.6-2.9-.8v-4.7c1.8-1.1 3.3-2.5 4.5-4.2h5.2c2.6 0 4.6-2.1 4.6-4.6v-5.6c.3-.7.5-1.5.5-2.4v-1.7c0-.8-.2-1.6-.5-2.4V31c0-12.8-10.4-23.3-23.3-23.3-12.8 0-23.3 10.4-23.3 23.3v2.9c-.3.7-.5 1.5-.5 2.4V38c0 3.3 2.7 6 6 6h1.4c.9 4.5 3.7 8.4 7.5 10.8v4.7c-.9.3-1.9.6-2.9.8-8.6 2.5-20.3 5.9-20.5 17.4v12.9c0 .9.7 1.7 1.7 1.7h4.9c.9 0 1.7-.7 1.7-1.7s-.7-1.7-1.7-1.7H433V77.8c.1-4 1.9-7 5.8-9.5 2.6-1.6 5.7-2.8 8.8-3.7l4 7.8c.4.9 1.6 1.2 2.4.6l1.8-1.2 1.5 5.7-2.6 11.5h-3.6c-.9 0-1.7.7-1.7 1.7s.7 1.7 1.7 1.7h41.5c.9 0 1.7-.7 1.7-1.7v-13zm-21.5-14.2c.1 0 .2.1.3.1l-2.9 5.6-5.3-3.6 4.5-3.1c1.1.4 2.3.7 3.4 1zM462 67.6l3.3 2.2-1.6 6h-3.4l-1.6-6 3.3-2.2zm0-4-5.6-3.8v-3.5c1.7.6 3.6 1 5.6 1 2 0 3.8-.3 5.6-1v3.5l-5.6 3.8zm13.5-32.3c-.1 0-.1 0 0 0-3.5-2.2-6.4-4.1-11-2.8h-.1c-1 .4-1.9.7-2.7 1-5.2 2-8.1 3.1-13.1 3v-1.3c0-7.4 6-13.5 13.5-13.5 7.3.1 13.4 6.1 13.4 13.6zM482 46c0 .7-.6 1.3-1.3 1.3h-3.3c.5-1.1.8-2.2 1.1-3.3h1.4c.8 0 1.5-.2 2.2-.4L482 46zm.5-8c0 1.5-1.2 2.7-2.7 2.7h-1v-7.1h1c1.5 0 2.7 1.2 2.7 2.7V38zm-38.3 2.7c-1.5 0-2.7-1.2-2.7-2.7v-1.7c0-1.5 1.2-2.7 2.7-2.7h1v7.1h-1zm1.1-10.5h-1c-.8 0-1.5.1-2.2.4.2-10.9 9.1-19.7 20-19.7s19.8 8.8 20 19.7c-.7-.3-1.4-.4-2.2-.4h-1c-.5-8.8-7.8-15.8-16.7-15.8-9.1.1-16.4 7.1-16.9 15.8zm3.3 11.9c-.1-.5-.1-1.1-.1-1.6v-4.7c5.7.1 9-1.2 14.3-3.2.8-.3 1.7-.6 2.6-1 3.1-.9 4.9.3 8.2 2.3l1.8 1.2v5.4c0 2.5-.7 4.8-1.8 6.7H462c-.9 0-1.7.7-1.7 1.7 0 .9.7 1.7 1.7 1.7h8.9c-2.4 2.1-5.5 3.4-8.9 3.4-6.9 0-12.6-5.2-13.4-11.9zm5.1 27.1-2.9-5.6c.1 0 .2-.1.3-.1 1.2-.3 2.3-.7 3.3-1l4.5 3.1-5.2 3.6zm4.4 19.8 2.2-9.9h3.3l2.3 9.9h-7.8zm32.9 0h-21.7l-2.6-11.5 1.5-5.7L470 73c.8.5 1.9.3 2.4-.6l4-7.8c3.1 1 6.2 2.1 8.8 3.7 3.9 2.4 5.7 5.5 5.8 9.5V89z"/><path d="M484.4 80.7h-8.3c-.9 0-1.7.7-1.7 1.7 0 .9.7 1.7 1.7 1.7h8.3c.9 0 1.7-.7 1.7-1.7 0-.9-.7-1.7-1.7-1.7zM443.7 89c-.9 0-1.7.7-1.7 1.7s.7 1.7 1.7 1.7c.9 0 1.7-.7 1.7-1.7s-.8-1.7-1.7-1.7z"/></g></svg>