<svg xmlns="http://www.w3.org/2000/svg" viewBox="14.5 14.5 71 71" xml:space="preserve"><circle fill="#FFAE3A" cx="75.5" cy="48.8" r="5.6"/><path fill="#0093D8" d="M46.8 35.3h3.7v2.6h-3.7zm10.596 2.6 2.536 2.694-1.894 1.782-2.536-2.695zm5.008 9.556.07 3.7-2.6.049-.07-3.7zm-2.321 10.629-2.645 2.586-1.818-1.859 2.646-2.586zM47 61.1h3.7v2.6H47zm-5.712-21.472-2.536 2.694-1.894-1.782 2.536-2.694zm-4.264 7.829-.071 3.7-2.6-.05.071-3.7zm1.536 8.716 2.645 2.586-1.817 1.86-2.646-2.587z"/><circle fill="#FFAE3A" cx="67.7" cy="29.7" r="5.6"/><circle fill="#FFAE3A" cx="48.6" cy="21.7" r="5.6"/><circle fill="#FFAE3A" cx="29.4" cy="29.7" r="5.6"/><circle fill="#FFAE3A" cx="21.6" cy="48.8" r="5.6"/><circle fill="#FFAE3A" cx="29.4" cy="67.8" r="5.6"/><circle fill="#FFAE3A" cx="48.6" cy="76" r="5.6"/><path fill="#0093D8" d="M48.6 37.2c-6.7 0-12.2 5.5-12.2 12.2 0 6.7 5.5 12.2 12.2 12.2 6.7 0 12.2-5.5 12.2-12.2 0-6.7-5.5-12.2-12.2-12.2zm0 16.9c-2.6 0-4.7-2.1-4.7-4.7s2.1-4.7 4.7-4.7 4.7 2.1 4.7 4.7c-.1 2.6-2.2 4.7-4.7 4.7z"/><path fill="#2B4049" d="M43 74.2c-3-.7-5.8-1.9-8.3-3.5-.5-.3-1.2-.2-1.6.3-.3.5-.2 1.2.3 1.6 2.8 1.8 5.8 3.1 9.1 3.9h.3c.5 0 1-.4 1.1-.9.1-.6-.3-1.3-.9-1.4zM27 62.8c-1.6-2.6-2.7-5.4-3.3-8.4-.1-.6-.7-1-1.4-.9-.6.1-1 .7-.9 1.4.6 3.3 1.9 6.4 3.6 9.2.2.4.6.5 1 .5.2 0 .4-.1.6-.2.5-.3.7-1.1.4-1.6zm0-29c-.5-.4-1.2-.2-1.6.3-1.8 2.7-3 5.6-3.8 8.7-.2.6.2 1.2.8 1.4h.3c.5 0 1-.4 1.1-.9.7-2.8 1.9-5.5 3.5-7.9.4-.5.3-1.2-.3-1.6zm17-10.6c-.1-.6-.7-1-1.4-.9-3.1.7-6.1 1.9-8.8 3.6-.5.3-.7 1-.4 1.6.2.4.6.5 1 .5.2 0 .4-.1.6-.2 2.5-1.5 5.2-2.6 8-3.3.8 0 1.2-.6 1-1.3zm19.1 2.7c-2.7-1.7-5.6-2.8-8.7-3.5-.6-.1-1.2.3-1.4.9-.1.6.3 1.2.9 1.4 2.8.6 5.5 1.7 7.9 3.2.2.1.4.2.6.2.4 0 .8-.2 1-.5.4-.7.3-1.4-.3-1.7zm12.4 17c-.8-3.1-2.1-6.1-3.9-8.8-.4-.5-1.1-.7-1.6-.3-.5.4-.7 1.1-.3 1.6 1.6 2.5 2.8 5.2 3.5 8.1.1.5.6.9 1.1.9h.3c.7-.2 1-.9.9-1.5z"/><g fill="#2B4049"><path d="M48.6 43.9c-3 0-5.5 2.5-5.5 5.5s2.5 5.5 5.5 5.5 5.5-2.5 5.5-5.5-2.5-5.5-5.5-5.5zm0 8.7c-1.8 0-3.2-1.4-3.2-3.2s1.4-3.2 3.2-3.2c1.8 0 3.2 1.4 3.2 3.2s-1.5 3.2-3.2 3.2z"/><path d="M62.3 45.8h-.6c-.3-1.1-.7-2.1-1.3-3.1l.4-.4c.9-.9.9-2.5 0-3.4l-1.7-1.7c-.9-.9-2.5-.9-3.4 0l-.4.4c-1-.6-2-1-3.1-1.3v-.6c0-1.3-1.1-2.4-2.4-2.4h-2.5c-1.3 0-2.4 1.1-2.4 2.4v.6c-1.1.3-2.1.7-3.1 1.3l-.4-.4c-.5-.5-1.1-.7-1.7-.7s-1.3.3-1.7.7l-1.7 1.7c-.5.5-.7 1.1-.7 1.7s.3 1.3.7 1.7l.4.4c-.6 1-1 2-1.3 3.1h-.6c-1.3 0-2.4 1.1-2.4 2.4v2.5c0 1.3 1.1 2.4 2.4 2.4h.6c.3 1.1.7 2.1 1.3 3.1l-.4.4c-.5.5-.7 1.1-.7 1.7 0 .6.3 1.3.7 1.7l1.7 1.7c.9.9 2.5.9 3.4 0l.4-.4c1 .6 2 1 3.1 1.3v.6c0 1.3 1.1 2.4 2.4 2.4h2.5c1.3 0 2.4-1.1 2.4-2.4v-.6c1.1-.3 2.1-.7 3.1-1.3l.4.4c.9.9 2.5.9 3.4 0l1.7-1.7c.9-.9.9-2.5 0-3.4l-.4-.4c.6-1 1-2 1.3-3.1h.6c1.3 0 2.4-1.1 2.4-2.4v-2.5c0-1.3-1.1-2.4-2.4-2.4zm.1 4.9c0 .1-.1.1-.1.1h-1.5c-.5 0-1 .4-1.1.9-.3 1.4-.8 2.8-1.7 4-.3.5-.2 1.1.1 1.5l1.1 1.1v.2l-1.7 1.7h-.2l-1-1.2c-.4-.4-1-.4-1.5-.1-1.2.8-2.6 1.4-4 1.7-.5.1-.9.6-.9 1.1v1.5c0 .1-.1.1-.1.1h-2.5c-.1 0-.1-.1-.1-.1v-1.5c0-.5-.4-1-.9-1.1-1.4-.3-2.8-.8-4-1.7-.2-.1-.4-.2-.6-.2-.3 0-.6.1-.8.3l-1.1 1.1h-.2l-1.7-1.7v-.2l1.1-1.1c.4-.4.4-1 .1-1.5-.8-1.2-1.4-2.6-1.7-4-.1-.5-.6-.9-1.1-.9h-1.5c-.1 0-.1-.1-.1-.1v-2.5c0-.1.1-.1.1-.1h1.5c.5 0 1-.4 1.1-.9.3-1.4.8-2.8 1.7-4 .3-.5.2-1.1-.1-1.5l-1.1-1.1v-.2l1.7-1.7h.2l1.1 1.1c.4.4 1 .4 1.5.1 1.2-.8 2.6-1.4 4-1.7.5-.1.9-.6.9-1.1v-1.5c0-.1.1-.1.1-.1h2.5c.1 0 .1.1.1.1V37c0 .5.4 1 .9 1.1 1.4.3 2.8.8 4 1.7.5.3 1.1.2 1.5-.1l1.1-1.1h.2l1.7 1.7v.2l-1.1 1.1c-.4.4-.4 1-.1 1.5.8 1.2 1.4 2.6 1.7 4 .1.5.6.9 1.1.9h1.5c.1 0 .1.1.1.1v2.6z"/></g><path fill="#2B4049" d="M48.6 14.8c-3.8 0-6.9 3.1-6.9 6.9s3.1 6.9 6.9 6.9 6.9-3.1 6.9-6.9-3.1-6.9-6.9-6.9zm0 11.5c-2.5 0-4.6-2.1-4.6-4.6s2.1-4.6 4.6-4.6c2.5 0 4.6 2.1 4.6 4.6 0 2.6-2.1 4.6-4.6 4.6zm0 42.7c-3.8 0-6.9 3.1-6.9 6.9s3.1 6.9 6.9 6.9 6.9-3.1 6.9-6.9-3.1-6.9-6.9-6.9zm0 11.6c-2.5 0-4.6-2.1-4.6-4.6s2.1-4.6 4.6-4.6c2.5 0 4.6 2.1 4.6 4.6 0 2.5-2.1 4.6-4.6 4.6zm27.1-38.7c-3.8 0-6.9 3.1-6.9 6.9s3.1 6.9 6.9 6.9c3.8 0 6.9-3.1 6.9-6.9s-3.1-6.9-6.9-6.9zm0 11.6c-2.5 0-4.6-2.1-4.6-4.6 0-2.5 2.1-4.6 4.6-4.6 2.5 0 4.6 2.1 4.6 4.6 0 2.5-2.1 4.6-4.6 4.6zM21.4 41.9c-3.8 0-6.9 3.1-6.9 6.9s3.1 6.9 6.9 6.9 6.9-3.1 6.9-6.9-3-6.9-6.9-6.9zm0 11.6c-2.5 0-4.6-2.1-4.6-4.6 0-2.5 2.1-4.6 4.6-4.6s4.6 2.1 4.6 4.6c0 2.5-2 4.6-4.6 4.6zm51.2-28.7c-1.3-1.3-3-2-4.9-2-1.8 0-3.6.7-4.9 2-2.7 2.7-2.7 7.1 0 9.8 1.3 1.3 3 2 4.9 2 1.8 0 3.6-.7 4.9-2s2-3 2-4.9c.1-1.9-.7-3.6-2-4.9zM71 32.9c-1.8 1.8-4.7 1.8-6.5 0-1.8-1.8-1.8-4.7 0-6.5.9-.9 2.1-1.3 3.3-1.3s2.4.4 3.3 1.3c1.7 1.8 1.7 4.7-.1 6.5zM34.3 63.1c-1.3-1.3-3-2-4.9-2s-3.6.7-4.9 2c-1.3 1.3-2 3-2 4.9 0 1.8.7 3.6 2 4.9 1.3 1.3 3.1 2 4.9 2s3.5-.7 4.9-2c2.7-2.7 2.7-7.1 0-9.8zm-1.7 8.2c-1.8 1.8-4.7 1.8-6.5 0-1.8-1.8-1.8-4.7 0-6.5.9-.9 2.1-1.3 3.3-1.3 1.2 0 2.4.5 3.3 1.3 1.7 1.8 1.7 4.7-.1 6.5zm1.7-46.5c-2.7-2.7-7.1-2.7-9.8 0-1.3 1.3-2 3-2 4.9s.7 3.6 2 4.9c1.3 1.3 3 2 4.9 2 1.8 0 3.6-.7 4.9-2 2.7-2.7 2.7-7.1 0-9.8zm-1.7 8.1c-1.8 1.8-4.7 1.8-6.5 0-1.8-1.8-1.8-4.7 0-6.5.9-.9 2.1-1.3 3.3-1.3 1.2 0 2.4.4 3.3 1.3 1.7 1.8 1.7 4.7-.1 6.5zM74 73.7c-.6 0-1.2.5-1.2 1.2v2.3c0 .6.5 1.2 1.2 1.2s1.2-.5 1.2-1.2v-2.3c-.1-.7-.6-1.2-1.2-1.2zm0-11.6c-.6 0-1.2.5-1.2 1.2V69c0 .6.5 1.2 1.2 1.2s1.2-.5 1.2-1.2v-5.8c-.1-.6-.6-1.1-1.2-1.1z"/><path fill="#2B4049" d="M74 54c-.6 0-1.2.5-1.2 1.2v2.3c0 .6.5 1.2 1.2 1.2s1.2-.5 1.2-1.2v-2.3c-.1-.6-.6-1.2-1.2-1.2zm3.4 19.7c-.6 0-1.2.5-1.2 1.2v2.3c0 .6.5 1.2 1.2 1.2.6 0 1.2-.5 1.2-1.2v-2.3c0-.7-.5-1.2-1.2-1.2zm0-11.6c-.6 0-1.2.5-1.2 1.2V69c0 .6.5 1.2 1.2 1.2.6 0 1.2-.5 1.2-1.2v-5.8c0-.6-.5-1.1-1.2-1.1zm0-8.1c-.6 0-1.2.5-1.2 1.2v2.3c0 .6.5 1.2 1.2 1.2.6 0 1.2-.5 1.2-1.2v-2.3c0-.6-.5-1.2-1.2-1.2z"/><path fill="#2B4049" d="M85.2 75.2c-.4-.5-1.2-.5-1.6-.1l-7.9 7.3-7.9-7.3c-.5-.4-1.2-.4-1.6.1-.4.5-.4 1.2.1 1.6l8.7 8.1c.2.2.5.3.8.3.3 0 .6-.1.8-.3l8.7-8.1c.3-.4.3-1.2-.1-1.6z"/></svg>