<svg xmlns="http://www.w3.org/2000/svg" width="1122.52" height="600.701" viewBox="0 0 297 158.935"><path d="m40 53.916 17.476-7.668L40 38.576Z" style="fill:#000" transform="matrix(1.59587 0 0 1.53679 72.382 5.585)"/><path d="M92.876 29.848c-.704-6.812-7.172-12.92-14.124-13.352-26.2-1.592-35.304-1.592-61.5 0-6.956.42-13.424 6.54-14.132 13.352-1.484 14.436-1.488 21.92-.004 36.376.704 6.812 7.176 12.928 14.132 13.352C30.344 80.372 39.256 80.7 48 80.7s17.652-.328 30.752-1.124c6.96-.416 13.432-6.54 14.14-13.352 1.476-14.424 1.472-21.908-.016-36.376ZM63.252 48.084 38.808 58.82a2.084 2.084 0 0 1-.804.168A2.006 2.006 0 0 1 36 56.984V35.516c0-.676.34-1.304.908-1.672a2.007 2.007 0 0 1 1.9-.156L63.256 44.42a2.003 2.003 0 0 1 1.196 1.836c0 .788-.472 1.504-1.2 1.828z" style="fill:#000" transform="matrix(1.59587 0 0 1.53679 72.382 5.585)"/><path style="stroke-width:.85606092" d="M68.842 182.236a7.51 6.246 0 0 0-12.82-4.416 69.366 57.693 0 0 0 0 81.591 7.51 6.246 0 0 0 10.62-8.833 54.346 45.2 0 0 1 0-63.925 7.485 6.226 0 0 0 2.2-4.417z" transform="translate(0 -138.065)"/><path style="stroke-width:.85606092" d="M47.092 271.717a91.804 76.356 0 0 1 0-107.862 7.51 6.246 0 1 0-10.62-8.834 106.842 88.863 0 0 0 0 125.529 7.51 6.246 0 1 0 10.62-8.833z" transform="translate(0 -138.065)"/><path style="stroke-width:.84529966" d="M230.214 256.639a7.156 6.39 0 0 0 12.215 4.519 66.1 59.031 0 0 0 0-83.485 7.156 6.39 0 0 0-10.12 9.038 51.787 46.25 0 0 1 0 65.409 7.133 6.37 0 0 0-2.095 4.519z" transform="translate(0 -138.065)"/><path style="stroke-width:.84529966" d="M250.921 163.39a87.481 78.127 0 0 1 0 110.363 7.156 6.39 0 1 0 10.12 9.039 101.81 90.924 0 0 0 0-128.44 7.156 6.39 0 1 0-10.12 9.038z" transform="translate(0 -138.065)"/></svg>