<svg width="29" height="29" viewBox="0 0 29 29" fill="none" xmlns="http://www.w3.org/2000/svg">
<path d="M25.3112 10.0352C25.299 9.12005 25.1277 8.21399 24.8049 7.35755C24.525 6.63515 24.0974 5.97908 23.5496 5.43126C23.0018 4.88344 22.3457 4.45592 21.6233 4.17601C20.7779 3.85865 19.8848 3.68705 18.9819 3.66851C17.8195 3.61655 17.451 3.60205 14.5002 3.60205C11.5495 3.60205 11.1712 3.60205 10.0173 3.66851C9.11486 3.68718 8.22213 3.85878 7.37708 4.17601C6.65457 4.45573 5.9984 4.88318 5.45056 5.43102C4.90271 5.97887 4.47526 6.63504 4.19554 7.35755C3.87754 8.20234 3.70631 9.09527 3.68925 9.99776C3.63729 11.1614 3.62158 11.5299 3.62158 14.4807C3.62158 17.4314 3.62158 17.8084 3.68925 18.9636C3.70737 19.8674 3.87775 20.7592 4.19554 21.6062C4.47573 22.3285 4.9035 22.9844 5.45153 23.532C5.99955 24.0796 6.65578 24.5069 7.37829 24.7866C8.22102 25.1167 9.11391 25.3006 10.0185 25.3303C11.1821 25.3823 11.5507 25.398 14.5014 25.398C17.4522 25.398 17.8304 25.398 18.9843 25.3303C19.8871 25.3125 20.7804 25.1413 21.6257 24.824C22.348 24.5438 23.0039 24.1161 23.5516 23.5684C24.0994 23.0206 24.5271 22.3647 24.8073 21.6425C25.1251 20.7966 25.2955 19.9049 25.3136 18.9998C25.3655 17.8374 25.3812 17.4689 25.3812 14.5169C25.3788 11.5662 25.3788 11.1916 25.3112 10.0352ZM14.493 20.0608C11.4069 20.0608 8.90683 17.5607 8.90683 14.4746C8.90683 11.3886 11.4069 8.88851 14.493 8.88851C15.9745 8.88851 17.3953 9.47705 18.4429 10.5246C19.4905 11.5722 20.0791 12.9931 20.0791 14.4746C20.0791 15.9562 19.4905 17.377 18.4429 18.4246C17.3953 19.4722 15.9745 20.0608 14.493 20.0608ZM20.3014 9.98447C19.58 9.98447 18.9988 9.40205 18.9988 8.68188C18.9988 8.51091 19.0325 8.3416 19.0979 8.18364C19.1634 8.02568 19.2593 7.88215 19.3802 7.76125C19.5011 7.64035 19.6446 7.54444 19.8026 7.47901C19.9605 7.41358 20.1298 7.37991 20.3008 7.37991C20.4718 7.37991 20.6411 7.41358 20.7991 7.47901C20.957 7.54444 21.1006 7.64035 21.2215 7.76125C21.3424 7.88215 21.4383 8.02568 21.5037 8.18364C21.5691 8.3416 21.6028 8.51091 21.6028 8.68188C21.6028 9.40205 21.0204 9.98447 20.3014 9.98447Z" fill="#2BE71B" fill-opacity="0.78"/>
<path d="M14.4929 18.1033C16.4969 18.1033 18.1215 16.4787 18.1215 14.4746C18.1215 12.4706 16.4969 10.846 14.4929 10.846C12.4888 10.846 10.8643 12.4706 10.8643 14.4746C10.8643 16.4787 12.4888 18.1033 14.4929 18.1033Z" fill="#2BE71B" fill-opacity="0.78"/>
</svg>
