<svg width="33" height="19" viewBox="0 0 33 19" fill="none" xmlns="http://www.w3.org/2000/svg">
<path fill-rule="evenodd" clip-rule="evenodd" d="M16.1889 18.8H18.1889C18.1889 18.8 18.7889 18.7 19.0889 18.4C19.3889 18.1 19.3889 17.5 19.3889 17.5C19.3889 17.5 19.3889 14.9 20.5889 14.5C21.7889 14.1 23.3889 17.1 24.9889 18.2C26.1889 19.1 27.0889 18.9 27.0889 18.9L31.4889 18.8C31.4889 18.8 33.7889 18.7 32.6889 16.8C32.5889 16.7 32.0889 15.5 29.3889 13C26.5889 10.4 26.9889 10.9 30.2889 6.4C32.2889 3.7 33.0889 2.1 32.8889 1.3C32.6889 0.599999 31.1889 0.799999 31.1889 0.799999H26.1889C26.1889 0.799999 25.7889 0.7 25.5889 0.9C25.2889 1.1 25.1889 1.4 25.1889 1.4C25.1889 1.4 24.3889 3.5 23.3889 5.3C21.1889 9 20.2889 9.2 19.9889 9C19.1889 8.5 19.3889 6.8 19.3889 5.7C19.3889 2.1 19.9889 0.599999 18.2889 0.199999C17.7889 0.0999989 17.3889 0 15.9889 0C14.1889 0 12.6889 -3.8743e-07 11.8889 0.4C11.2889 0.7 10.8889 1.3 11.1889 1.3C11.4889 1.3 12.2889 1.5 12.6889 2C13.0889 2.9 13.0889 4.4 13.0889 4.4C13.0889 4.4 13.3889 8.7 12.3889 9.2C11.6889 9.6 10.7889 8.8 8.78889 5.4C7.78889 3.7 6.98889 1.7 6.98889 1.7C6.98889 1.7 6.88889 1.3 6.58889 1.1C6.28889 0.9 5.78889 0.799999 5.78889 0.799999H1.08889C1.08889 0.799999 0.388889 0.8 0.0888889 1.1C-0.111111 1.4 0.0888889 1.9 0.0888889 1.9C0.0888889 1.9 3.78889 10.5 7.98889 14.9C11.8889 19.1 16.1889 18.8 16.1889 18.8Z" fill="#2BE71B" fill-opacity="0.78"/>
</svg>
