<svg viewBox="0 0 64 64" xmlns="http://www.w3.org/2000/svg"><g data-name="58-woman"><circle cx="21" cy="30" r="2" fill="#b25e1e"/><path d="M47 63H13V44.25a3.994 3.994 0 013.18-3.92l10.15-2.05A1.989 1.989 0 0028 36.31V36s0 4 4 4 4-4 4-4v.31a1.989 1.989 0 001.67 1.97l10.15 2.05A3.994 3.994 0 0151 44.25V63z" fill="#b25e1e"/><path d="M47.82 40.33l-10.15-2.05A1.989 1.989 0 0136 36.31V36s0 4-4 4-4-4-4-4v.31a1.989 1.989 0 01-1.67 1.97l-10.15 2.05A3.994 3.994 0 0013 44.25v4a3.994 3.994 0 013.18-3.92l10.15-2.05A1.989 1.989 0 0028 40.31V40s0 4 4 4 4-4 4-4v.31a1.989 1.989 0 001.67 1.97l10.15 2.05A3.994 3.994 0 0151 48.25v-4a3.994 3.994 0 00-3.18-3.92z" fill="#d1813b"/><path d="M31 15h-8l.36 4H23a3 3 0 00-3 3h-2v-7a14 14 0 0128 0v14c0 5-6 6-6 6v-9l1-11h-2l-3-3-3 3z" fill="#414952"/><path d="M32 1a13.963 13.963 0 00-11.06 5.44A13.982 13.982 0 0143.5 17.5v14a5.255 5.255 0 01-.55 2.4A5.516 5.516 0 0046 29V15A14 14 0 0032 1z" fill="#636978"/><path d="M23.91 25l-.55-6-.36-4h10l3-3 3 3h2l-1 11a7.992 7.992 0 01-11.97 6.94 7.838 7.838 0 01-1.69-1.28A8.014 8.014 0 0124 26z" fill="#ffdaaa"/><path fill="#ffb680" d="M27 19h6l3-3 3 3h1.636L41 15h-2l-3-3-3 3H23l.36 4H27zm9 14v3s0 4-4 4-4-4-4-4v-3l.03-.06a7.964 7.964 0 007.94 0z"/><path d="M35.97 32.94a7.964 7.964 0 01-7.94 0L28 33v3l.03-.06a7.964 7.964 0 007.94 0L36 36v-3z" fill="#eb975d"/><path d="M21 24.23A2.94 2.94 0 0120 22a3 3 0 013-3h.36l.55 6H23a2.965 2.965 0 01-2-.77z" fill="#ffb680"/><path d="M41 15l-1 11a7.992 7.992 0 01-11.97 6.94 7.838 7.838 0 01-1.69-1.28A8.014 8.014 0 0124 26l-.09-1-.55-6-.36-4" fill="none" stroke="#000" stroke-linejoin="round" stroke-width="2"/><path d="M28 33v3.31a1.989 1.989 0 01-1.67 1.97l-10.15 2.05A3.994 3.994 0 0013 44.25V63h38V44.25a3.994 3.994 0 00-3.18-3.92l-10.15-2.05A1.989 1.989 0 0136 36.31V33M20 22h-2v-7a14 14 0 0128 0v14c0 5-6 6-6 6v-9" fill="none" stroke="#000" stroke-linejoin="round" stroke-width="2"/><path d="M24 19h-1a3 3 0 00-3 3 3.011 3.011 0 003 3h1m21 23v5s2 3 2 10M19 48v5s-2 3-2 10m19-27s0 4-4 4-4-4-4-4m-7-21h12l3-3 3 3h4m-20 0s0-5 2-6m2 6s0-5 2-6m2 6s0-5 2-6M21 24v4" fill="none" stroke="#000" stroke-linejoin="round" stroke-width="2"/><circle cx="21" cy="30" r="2" fill="none" stroke="#000" stroke-linejoin="round" stroke-width="2"/><path fill="none" stroke="#000" stroke-linejoin="round" stroke-width="2" d="M32 40v3"/></g></svg>