<svg width="37" height="42" viewBox="0 0 37 42" fill="none" xmlns="http://www.w3.org/2000/svg">
<path fill-rule="evenodd" clip-rule="evenodd" d="M18.6071 41.1265C17.9133 41.1265 17.248 40.8562 16.7574 40.375C16.2668 39.8939 15.9913 39.2413 15.9913 38.5609L15.9912 8.83647L4.76401 19.8529C4.52079 20.0915 4.23206 20.2807 3.91429 20.4098C3.59652 20.5389 3.25593 20.6053 2.91198 20.6053C2.56803 20.6053 2.22744 20.5389 1.90967 20.4098C1.5919 20.2807 1.30317 20.0915 1.05995 19.8529C0.816744 19.6144 0.623819 19.3312 0.492193 19.0196C0.360567 18.7079 0.292822 18.3739 0.292822 18.0365C0.292822 17.6992 0.360567 17.3652 0.492193 17.0535C0.623819 16.7418 0.816744 16.4587 1.05995 16.2201L16.7551 0.826826C16.9981 0.587904 17.2867 0.398348 17.6045 0.26901C17.9223 0.139673 18.263 0.0730989 18.6071 0.0730988C18.9512 0.0730988 19.2919 0.139673 19.6097 0.26901C19.9275 0.398347 20.2161 0.587904 20.4591 0.826826L36.1543 16.2201C36.3975 16.4587 36.5904 16.7418 36.722 17.0535C36.8536 17.3652 36.9214 17.6992 36.9214 18.0365C36.9214 18.3739 36.8536 18.7079 36.722 19.0196C36.5904 19.3312 36.3975 19.6144 36.1543 19.8529C35.6631 20.3347 34.9969 20.6053 34.3022 20.6053C33.9583 20.6053 33.6177 20.5389 33.2999 20.4098C32.9821 20.2807 32.6934 20.0915 32.4502 19.8529L21.223 8.83647L21.223 38.5609C21.223 39.2413 20.9474 39.8939 20.4568 40.375C19.9662 40.8562 19.3009 41.1265 18.6071 41.1265Z" fill="white"/>
</svg>
