<svg width="121" height="16" fill="none" xmlns="http://www.w3.org/2000/svg"><path d="M17.567 16h-3.47V6.321h-.074l-3.835 9.518H7.931L4.107 6.32h-.086V16H.551V.499h4.555l3.91 9.958h.087l3.91-9.958h4.554V16zm8.285 0h-3.943V.499h3.943V16zm11.882 0h-3.931V3.679h-4.276V.499H42.01v3.18h-4.276V16zM49.617 3.475v4.404h2.31c.723 0 1.289-.197 1.697-.59.408-.395.612-.928.612-1.601 0-.667-.21-1.2-.633-1.601-.423-.408-.985-.612-1.687-.612h-2.299zm0 7.1V16h-3.942V.499h6.639c1.919 0 3.39.448 4.414 1.343 1.025.895 1.537 2.152 1.537 3.77 0 .974-.237 1.859-.71 2.654a4.146 4.146 0 01-1.944 1.73L58.716 16H54.29l-2.664-5.425h-2.009zM72.436 16l-.978-3.405h-5.07L65.399 16h-4.017L66.592.499h4.823L76.625 16h-4.19zM68.88 3.786L67.15 9.76h3.535l-1.72-5.973h-.085zM87.358 16h-4.963L77.456.499h4.479l2.986 11.645h.086L87.98.499h4.32L87.358 16zm19.048-3.18V16H95.782V.499h10.624v3.18h-6.681v3.083h6.284v2.9h-6.284v3.158h6.681zm14.579 0V16H110.63V.499h3.942V12.82h6.413z" fill="#fff"/></svg>