<?xml version="1.0" encoding="utf-8"?><svg viewBox="0 0 121 44" xmlns="http://www.w3.org/2000/svg" xmlns:xlink="http://www.w3.org/1999/xlink"><style>:root>svg{display:none}:root>svg:target{display:block}</style><svg viewBox="0 0 16 16" id="arrow-left" xmlns="http://www.w3.org/2000/svg"><path d="M15 8H1M8 15L1 8l7-7" stroke="#fff" stroke-width="2" stroke-linecap="round" stroke-linejoin="round"/></svg><svg viewBox="0 0 16 16" id="arrow-right" xmlns="http://www.w3.org/2000/svg"><path d="M1 8h14M8 1l7 7-7 7" stroke="#fff" stroke-width="2" stroke-linecap="round" stroke-linejoin="round"/></svg><svg viewBox="0 0 11 20" id="faceboock" xmlns="http://www.w3.org/2000/svg"><path fill-rule="evenodd" clip-rule="evenodd" d="M11 0H8a5 5 0 00-5 5v3H0v4h3v8h4v-8h3l1-4H7V5a1 1 0 011-1h3V0z"/></svg><svg viewBox="0 0 121 16" id="logo" xmlns="http://www.w3.org/2000/svg"><path d="M17.567 16h-3.47V6.321h-.074l-3.835 9.518H7.931L4.107 6.32h-.086V16H.551V.499h4.555l3.91 9.958h.087l3.91-9.958h4.554V16zm8.285 0h-3.943V.499h3.943V16zm11.882 0h-3.931V3.679h-4.276V.499H42.01v3.18h-4.276V16zM49.617 3.475v4.404h2.31c.723 0 1.289-.197 1.697-.59.408-.395.612-.928.612-1.601 0-.667-.21-1.2-.633-1.601-.423-.408-.985-.612-1.687-.612h-2.299zm0 7.1V16h-3.942V.499h6.639c1.919 0 3.39.448 4.414 1.343 1.025.895 1.537 2.152 1.537 3.77 0 .974-.237 1.859-.71 2.654a4.146 4.146 0 01-1.944 1.73L58.716 16H54.29l-2.664-5.425h-2.009zM72.436 16l-.978-3.405h-5.07L65.399 16h-4.017L66.592.499h4.823L76.625 16h-4.19zM68.88 3.786L67.15 9.76h3.535l-1.72-5.973h-.085zM87.358 16h-4.963L77.456.499h4.479l2.986 11.645h.086L87.98.499H92.3L87.358 16zm19.048-3.18V16H95.782V.499h10.624v3.18h-6.681v3.083h6.284v2.9h-6.284v3.158h6.681zm14.579 0V16H110.63V.499h3.942V12.82h6.413z"/></svg><svg viewBox="0 0 34 44" id="play-video" xmlns="http://www.w3.org/2000/svg"><path clip-rule="evenodd" d="M1 1l32 20.571L1 42.143V1v0z" stroke="#fff" stroke-linecap="round" stroke-linejoin="round"/></svg><svg viewBox="0 0 20 20" id="search" xmlns="http://www.w3.org/2000/svg"><path clip-rule="evenodd" d="M9 17A8 8 0 109 1a8 8 0 000 16z" stroke="#000" stroke-width="2" stroke-linecap="round" stroke-linejoin="round"/><path d="M19 19l-4.35-4.35" stroke="#000" stroke-width="2" stroke-linecap="round" stroke-linejoin="round"/></svg><svg viewBox="0 0 20 17" id="twitter" xmlns="http://www.w3.org/2000/svg"><path fill-rule="evenodd" clip-rule="evenodd" d="M20 .01a9.91 9.91 0 01-2.855 1.39A4.073 4.073 0 0010 4.128v.909A9.69 9.69 0 011.818.918S-1.818 9.1 6.364 12.737A10.582 10.582 0 010 14.555c8.182 4.545 18.182 0 18.182-10.455-.001-.253-.025-.506-.073-.754A7.018 7.018 0 0020 .009z"/></svg><svg viewBox="0 0 24 24" id="user" xmlns="http://www.w3.org/2000/svg"><g opacity=".5" stroke="#000" stroke-width="2" stroke-linecap="round" stroke-linejoin="round"><path d="M20 21v-2a4 4 0 00-4-4H8a4 4 0 00-4 4v2"/><path clip-rule="evenodd" d="M12 11a4 4 0 100-8 4 4 0 000 8z"/></g></svg></svg>
