<svg width="222" height="99" viewBox="0 0 222 99" fill="none" xmlns="http://www.w3.org/2000/svg">
<path d="M41.4265 5.21C39.384 2.75882 35.719 2.40969 33.4681 4.67104C28.5815 9.58024 24.5405 15.2821 21.5237 21.5474C17.6697 29.5515 15.5771 38.2891 15.3871 47.1707C15.197 56.0523 16.9139 64.8714 20.4219 73.0331C23.1679 79.4217 26.9613 85.2912 31.6334 90.405C33.7855 92.7605 37.4621 92.5685 39.6076 90.207V90.207C41.7532 87.8454 41.549 84.2113 39.4474 81.8105C35.9716 77.8398 33.1306 73.3404 31.0374 68.4704C28.1817 61.8266 26.7842 54.6477 26.9389 47.4179C27.0936 40.1881 28.797 33.0756 31.9342 26.5601C34.2339 21.784 37.2647 17.4102 40.9073 13.5919C43.1097 11.2832 43.4691 7.66119 41.4265 5.21V5.21Z" fill="black"/>
<path d="M52.36 20.2462C50.4063 17.9016 46.8907 17.5631 44.8164 19.8017C41.8814 22.9691 39.434 26.5693 37.5649 30.4855C34.9003 36.0685 33.4741 42.1617 33.3842 48.3475C33.2943 54.5332 34.5428 60.6653 37.0441 66.3235C38.7986 70.2922 41.1404 73.962 43.982 77.2134C45.9904 79.5114 49.5143 79.2751 51.5353 76.9884V76.9884C53.5563 74.7016 53.2951 71.2339 51.3913 68.8486C49.6885 66.7151 48.2621 64.3656 47.1522 61.855C45.295 57.6539 44.368 53.1009 44.4348 48.5081C44.5015 43.9153 45.5604 39.3912 47.5389 35.2458C48.7213 32.7685 50.2154 30.4614 51.9795 28.3783C53.9517 26.0494 54.3137 22.5907 52.36 20.2462V20.2462Z" fill="black"/>
<path d="M181.175 93.8176C183.305 96.3522 187.1 96.6874 189.414 94.317C194.431 89.1777 198.568 83.2205 201.642 76.6851C205.571 68.3335 207.673 59.2317 207.805 49.9937C207.938 40.7556 206.099 31.5963 202.413 23.1334C199.526 16.5077 195.56 10.4295 190.689 5.14398C188.448 2.71164 184.648 2.93933 182.445 5.41108V5.41108C180.243 7.88189 180.479 11.6567 182.667 14.1353C186.293 18.2412 189.265 22.9022 191.466 27.9542C194.467 34.8432 195.964 42.2991 195.856 49.819C195.748 57.3389 194.037 64.748 190.839 71.5463C188.496 76.5279 185.394 81.0966 181.656 85.0926C179.393 87.5119 179.045 91.283 181.175 93.8176V93.8176Z" fill="black"/>
<path d="M169.759 78.2584C171.797 80.6827 175.437 81.0081 177.568 78.6626C180.579 75.3486 183.083 71.5885 184.988 67.5042C187.703 61.6789 189.135 55.332 189.183 48.8983C189.232 42.4646 187.897 36.0964 185.269 30.2298C183.425 26.1138 180.976 22.313 178.013 18.9512C175.92 16.5777 172.278 16.8502 170.204 19.2433V19.2433C168.13 21.6354 168.423 25.2368 170.408 27.7005C172.186 29.9087 173.68 32.3438 174.847 34.9491C176.798 39.3049 177.789 44.0333 177.753 48.8101C177.717 53.587 176.654 58.2996 174.638 62.6247C173.433 65.2078 171.906 67.6163 170.098 69.7941C168.073 72.2329 167.722 75.8341 169.759 78.2584V78.2584Z" fill="black"/>
<path d="M104 56L122 48.0021L104 40V56Z" fill="black"/>
<path d="M158.82 31.1247C158.077 24.0417 151.257 17.6907 143.926 17.2415C116.3 15.5862 106.7 15.5862 79.0773 17.2415C71.7425 17.6782 64.9223 24.0417 64.1757 31.1247C62.6109 46.1351 62.6067 53.9169 64.1715 68.948C64.9138 76.0311 71.7383 82.3904 79.0731 82.8313C92.8822 83.6589 102.28 84 111.5 84C120.72 84 130.113 83.6589 143.926 82.8313C151.265 82.3987 158.09 76.0311 158.836 68.948C160.393 53.9502 160.389 46.1684 158.82 31.1247V31.1247ZM127.582 50.0863L101.807 61.2495C101.537 61.3618 101.246 61.4241 100.959 61.4241C100.554 61.4241 100.154 61.316 99.8079 61.0872C99.209 60.7004 98.8463 60.0475 98.8463 59.3404V37.0183C98.8463 36.3154 99.2048 35.6624 99.8037 35.2797C100.403 34.8929 101.153 34.8389 101.807 35.1175L127.587 46.2765C128.354 46.6093 128.848 47.3579 128.848 48.1856C128.848 49.0049 128.35 49.7494 127.582 50.0863V50.0863Z" fill="black"/>
</svg>
