<svg xmlns="http://www.w3.org/2000/svg" viewBox="40 40 20 20" xml:space="preserve"><g fill="#FFAE3A"><path d="M54.7 40.1h-9.2c-3 0-5.3 2.4-5.3 5.3v9.1c0 3.1 2.4 5.5 5.3 5.5h9.1c3 0 5.3-2.4 5.3-5.3v-9.2c.1-3.1-2.3-5.4-5.2-5.4zm-4.6 15.4c-3 0-5.5-2.5-5.5-5.5s2.5-5.5 5.5-5.5 5.5 2.5 5.5 5.5c-.1 3-2.6 5.5-5.5 5.5zm5.6-9.6c-.9 0-1.6-.7-1.6-1.6 0-.9.7-1.6 1.6-1.6.9 0 1.6.7 1.6 1.6 0 .9-.8 1.6-1.6 1.6z"/><path d="M50.1 45.8c-2.4 0-4.2 1.9-4.2 4.2s1.9 4.2 4.2 4.2c2.4 0 4.2-1.9 4.2-4.2s-1.9-4.2-4.2-4.2zm5.6-2c-.2 0-.5.2-.5.5s.2.5.5.5c.2 0 .5-.2.5-.5-.2-.3-.3-.5-.5-.5z"/></g></svg>