<svg xmlns="http://www.w3.org/2000/svg" viewBox="452.5 40.5 19 19" xml:space="preserve"><path fill="#7D3DAF" d="M469.3 59.3h-14.5c-1.1 0-2-.9-2-2V42.8c0-1.1.9-2 2-2h14.5c1.1 0 2 .9 2 2v14.5c0 1.1-.9 2-2 2z"/><g fill="#FFF"><path d="M468.2 51.1c.4-3.5-.2-5.7-1.3-6.7-1.8-1.7-7.8-1.9-9.9.1-1 1-1.3 2.4-1.3 4.2 0 1.8-.1 5.2 3.1 6.1v1.4s0 .6.3.7c.4.1.6-.1 1.9-1.7 2.1.2 3.8-.2 4-.3.4-.1 2.8-.4 3.2-3.8zm-7 3.2s-1.4 1.7-1.8 2.1c-.1.1-.3.1-.3-.2v-2.3c-2.7-.8-2.5-3.6-2.5-5.1 0-1.5.3-2.7 1.1-3.6 1.9-1.8 7.1-1.4 8.5-.1 1.6 1.5 1.1 5.6 1.1 5.7-.3 2.8-2.3 3-2.7 3.1-.2.1-1.6.5-3.4.4z"/><path d="M461.9 45.6c-.2 0-.2.3 0 .3 1.7 0 3.1 1.2 3.2 3.4 0 .2.3.2.3 0 0-2.4-1.6-3.7-3.5-3.7z"/><path d="M464.2 49c0 .2.3.2.3 0 0-1.3-.8-2.4-2.3-2.5-.2 0-.2.3 0 .3 1.3.1 2 1 2 2.2zm-.4 1.4c-.3-.2-.6-.1-.7.1l-.3.3c-.1.2-.4.1-.4.1-1.7-.5-2.2-2.3-2.2-2.3s0-.2.1-.4l.3-.3c.2-.1.3-.4.1-.7-.4-.8-.7-1-.9-1.2-.2-.2-.4-.2-.6-.1-.5.3-1 .8-.9 1.4.3.6.8 2.5 2.6 3.9.8.7 2.1 1.4 2.7 1.5.5.2 1.1-.4 1.4-.9.1-.2.1-.5-.1-.6-.2-.2-.7-.5-1.1-.8z"/><path d="M462.5 47.8c.6 0 .8.3.9.9 0 .2.3.2.3 0 0-.8-.4-1.2-1.2-1.2-.2-.1-.3.2 0 .3z"/></g></svg>