<svg xmlns="http://www.w3.org/2000/svg" viewBox="40 40 20 20" xml:space="preserve"><g fill="#FFF"><path d="M48.3 51.7c-1.9-1.9-2.3-3.8-2.4-4.6 0-.2 0-.4.2-.6l1.5-1.5c.2-.2.3-.6.1-.8l-2.5-3.8c-.2-.3-.6-.4-.9-.3L40.4 42c-.3.1-.4.4-.4.7.2 2 1.1 6.8 5.8 11.5s9.5 5.6 11.5 5.8c.3 0 .6-.1.7-.4l1.9-3.9c.2-.3 0-.7-.2-.9l-3.8-2.4c-.3-.2-.6-.1-.8.1L53.6 54c-.1.2-.4.2-.6.2-.9-.2-2.8-.6-4.7-2.5z"/><path d="M55.8 50.7c-.4 0-.7-.3-.7-.7 0-2.8-2.3-5.1-5.2-5.2-.4 0-.7-.3-.7-.7s.3-.7.7-.7c3.6 0 6.5 2.9 6.5 6.5.1.5-.2.8-.6.8z"/><path d="M59.3 50.7c-.4 0-.7-.3-.7-.7 0-4.7-3.8-8.6-8.6-8.6-.4 0-.7-.3-.7-.7s.3-.7.7-.7c5.5 0 10 4.5 10 10 0 .2-.1.4-.2.5-.2.1-.3.2-.5.2z"/></g></svg>